<?xml version="1.0" encoding="utf-8"?>
<!-- Generator: Adobe Illustrator 16.0.0, SVG Export Plug-In . SVG Version: 6.00 Build 0)  -->
<!DOCTYPE svg PUBLIC "-//W3C//DTD SVG 1.1//EN" "http://www.w3.org/Graphics/SVG/1.1/DTD/svg11.dtd">
<svg version="1.1" id="Layer_1" xmlns="http://www.w3.org/2000/svg" xmlns:xlink="http://www.w3.org/1999/xlink" x="0px" y="0px"
	 width="256px" height="256px" viewBox="0 0 256 256" enable-background="new 0 0 256 256" xml:space="preserve">
<g>
	<path d="M228.79,230H83.14c0-14.674,1.84-25.939,5.526-33.793c3.693-7.852,10.207-14.48,19.548-19.898
		c11.854-6.828,17.78-15.469,17.78-25.904c0-2.354-0.78-4.754-2.354-7.188c-4.159,3.379-15.268,7.229-33.32,11.539
		c-6.277,1.811-10.128,7.859-11.539,18.139c-0.788,4.867-2.376,8.653-4.774,11.367c-2.391,2.705-5.24,4.059-8.532,4.059
		c-3.143,0-5.848-0.309-8.125-0.938c0-4.166,0.408-7.388,1.238-9.662c0.816-2.275,2.248-4.623,4.295-7.06
		c2.198-2.984,3.293-5.611,3.293-7.89c0-2.904-1.332-4.364-3.994-4.364c-2.126,0-5.025,3.577-8.719,10.723
		c-4.237,8.317-6.907,12.556-8.002,12.713C33.292,174.698,27.208,165.751,27.208,155c0-6.602,4.553-15.979,13.658-28.145
		c6.592-8.869,10.794-15.075,12.598-18.604c1.804-3.529,3.021-7.888,3.651-13.07c0.63-5.648,1.317-9.635,2.062-11.947
		c0.744-2.319,2.448-5.483,5.125-9.484c3.529-5.175,5.741-9.613,6.649-13.307c0.902-3.686,1.353-8.711,1.353-15.067V30.651
		c7.373,3.221,14.517,10.758,21.431,22.612l6.242-0.236c2.978-5.254,5.218-13.542,6.714-24.845
		c5.49,2.513,10.515,7.28,15.067,14.309c4.553,7.029,7.73,11.911,9.542,14.66c33.749,4.316,58.438,16.778,74.058,37.379
		c15.619,20.615,23.436,55.639,23.436,105.093V230H228.79z M47.458,147.34c-2.434,0-4.459,0.809-6.063,2.42
		c-1.61,1.604-2.419,3.594-2.419,5.94c0,3.766,1.217,5.655,3.65,5.655c1.181,0,2.24-0.432,3.185-1.297
		c0.938-0.865,1.41-1.961,1.41-3.301l-3.414-4.123C45.618,151.227,46.828,149.459,47.458,147.34z M95.616,93.534l-0.938-2.126
		h-5.304c-2.67,0-6.063,1.403-10.186,4.18c-4.123,2.792-6.184,5.555-6.184,8.303c0,1.961,1.847,4.395,5.54,7.301v-5.061l0.945-1.532
		l5.061,0.708c2.742-1.417,4.116-2.67,4.116-3.765l-0.473-4.595C90.155,95.373,92.631,94.242,95.616,93.534z M98.794,60.8
		c-2.985,0-6.142,0.859-9.477,2.591c-3.336,1.725-5.24,4.159-5.712,7.301c2.198,0,4.846-0.494,7.953-1.475
		c3.092-0.981,4.982-2.219,5.647-3.708C97.871,64.021,98.4,62.447,98.794,60.8z M216.664,223.286v-18.841
		c0-40.026-4.053-69.445-12.125-88.242c-8.089-18.804-19.275-31.996-33.562-39.569c-14.287-7.573-25.826-11.359-34.615-11.359
		c-3.221,0-4.832,1.217-4.832,3.643c0,0.788,0.356,1.596,1.06,2.419c0.709,0.823,1.417,1.317,2.119,1.475
		c21.588,5.411,37.722,16.936,48.401,34.559c10.666,17.623,16.006,44.365,16.006,80.24c0,9.733-1.131,21.632-3.407,35.676
		L216.664,223.286L216.664,223.286z"/>
	<path fill="#FFFFFF" d="M106.691,28.182c5.49,2.513,10.515,7.28,15.067,14.309c4.553,7.029,7.73,11.911,9.542,14.66
		c33.749,4.316,58.438,16.778,74.058,37.379c15.619,20.615,23.436,55.639,23.436,105.093V230h-0.003H83.14
		c0-14.674,1.84-25.939,5.526-33.793c3.693-7.852,10.207-14.48,19.548-19.898c11.854-6.828,17.78-15.469,17.78-25.904
		c0-2.354-0.78-4.754-2.354-7.188c-4.159,3.379-15.268,7.229-33.32,11.539c-6.277,1.811-10.128,7.859-11.539,18.139
		c-0.788,4.867-2.376,8.653-4.774,11.367c-2.391,2.705-5.24,4.059-8.532,4.059c-3.143,0-5.848-0.309-8.125-0.938
		c0-4.166,0.408-7.388,1.238-9.662c0.816-2.275,2.248-4.623,4.295-7.06c2.198-2.984,3.293-5.611,3.293-7.89
		c0-2.904-1.332-4.364-3.994-4.364c-2.126,0-5.025,3.577-8.719,10.723c-4.237,8.317-6.907,12.556-8.002,12.713
		C33.292,174.698,27.208,165.751,27.208,155c0-6.602,4.553-15.979,13.658-28.145c6.592-8.869,10.794-15.075,12.598-18.604
		c1.804-3.529,3.021-7.888,3.651-13.07c0.63-5.648,1.317-9.635,2.062-11.947c0.744-2.319,2.448-5.483,5.125-9.484
		c3.529-5.175,5.741-9.613,6.649-13.307c0.902-3.686,1.353-8.711,1.353-15.067V30.651c7.373,3.221,14.517,10.758,21.431,22.612
		l6.242-0.236C102.955,47.773,105.195,39.485,106.691,28.182 M98.794,60.8c-2.985,0-6.142,0.859-9.477,2.591
		c-3.336,1.725-5.24,4.159-5.712,7.301c2.198,0,4.846-0.494,7.953-1.475c3.092-0.981,4.982-2.219,5.647-3.708
		C97.871,64.021,98.4,62.447,98.794,60.8 M195.708,223.287l20.956-0.001v-18.841c0-40.026-4.053-69.445-12.125-88.242
		c-8.089-18.804-19.275-31.996-33.562-39.569c-14.287-7.573-25.826-11.359-34.615-11.359c-3.221,0-4.832,1.217-4.832,3.643
		c0,0.788,0.356,1.596,1.06,2.419c0.709,0.823,1.417,1.317,2.119,1.475c21.588,5.411,37.722,16.936,48.401,34.559
		c10.666,17.623,16.006,44.365,16.006,80.24C199.115,197.345,197.984,209.243,195.708,223.287 M78.544,111.192v-5.061l0.945-1.532
		l5.061,0.708c2.742-1.417,4.116-2.67,4.116-3.765l-0.473-4.595c1.962-1.574,4.438-2.705,7.423-3.413l-0.938-2.126h-5.304
		c-2.67,0-6.063,1.403-10.186,4.18c-4.123,2.792-6.184,5.555-6.184,8.303C73.004,105.852,74.851,108.286,78.544,111.192
		 M47.458,147.34c-2.434,0-4.459,0.809-6.063,2.42c-1.61,1.604-2.419,3.594-2.419,5.94c0,3.766,1.217,5.655,3.65,5.655
		c1.181,0,2.24-0.432,3.185-1.297c0.938-0.865,1.41-1.961,1.41-3.301l-3.414-4.123C45.618,151.227,46.828,149.459,47.458,147.34
		 M102.622,20.821l-0.887,6.705c-1.185,8.953-2.833,15.869-4.908,20.617L96.5,48.155c-7.047-11.41-14.326-18.647-22.194-22.085
		l-7.002-3.06v7.641v14.725c0,5.928-0.407,10.598-1.21,13.878c-0.763,3.104-2.756,7.035-5.923,11.678
		c-2.979,4.453-4.854,7.965-5.755,10.773c-0.853,2.647-1.596,6.875-2.27,12.921c-0.551,4.527-1.607,8.362-3.134,11.348
		c-1.149,2.248-4.19,7.176-12.159,17.898c-9.851,13.164-14.645,23.35-14.645,31.127c0,12.6,6.972,23.082,20.722,31.154l1.509,0.887
		l1.732-0.249c2.116-0.304,3.775-1.43,6.573-5.933c-0.264,1.907-0.394,4.074-0.394,6.523v3.806l3.669,1.014
		c2.723,0.753,5.816,1.118,9.456,1.118c4.709,0,8.956-1.987,12.278-5.748c3.02-3.417,5.026-8.087,5.963-13.879l0.009-0.06
		l0.008-0.06c1.103-8.031,3.751-12.736,7.875-13.985c15.768-3.771,24.392-6.746,29.385-9.054c-0.05,8.535-5.048,15.55-15.275,21.44
		c-10.207,5.921-17.462,13.354-21.577,22.104c-4.039,8.605-6.001,20.354-6.001,35.921v5h5h145.65h5l0.003-5v-30.377
		c0-24.974-2.012-46.657-5.98-64.449c-4.045-18.136-10.259-32.827-18.47-43.664c-16.03-21.143-41.294-34.261-75.116-39.011
		c-1.866-2.851-4.593-7.047-8.272-12.726c-5.052-7.802-10.833-13.231-17.183-16.137L102.622,20.821L102.622,20.821z
		 M201.536,218.287c1.713-11.772,2.579-22.069,2.579-30.676c0-36.621-5.628-64.489-16.729-82.829
		c-8.44-13.928-20.187-24.35-35.043-31.127c4.9,1.774,10.34,4.243,16.291,7.397c13.186,6.989,23.721,19.48,31.312,37.127
		c7.774,18.105,11.718,47.13,11.718,86.267v13.841L201.536,218.287L201.536,218.287z M81.782,99.871
		c0.068-0.047,0.138-0.095,0.209-0.143c0.483-0.325,0.939-0.619,1.37-0.884l0.13,1.267L81.782,99.871L81.782,99.871z"/>
</g>
</svg>
