<?xml version="1.0" encoding="utf-8"?>
<!-- Generator: Adobe Illustrator 16.0.0, SVG Export Plug-In . SVG Version: 6.00 Build 0)  -->
<!DOCTYPE svg PUBLIC "-//W3C//DTD SVG 1.1//EN" "http://www.w3.org/Graphics/SVG/1.1/DTD/svg11.dtd">
<svg version="1.1" id="Layer_1" xmlns="http://www.w3.org/2000/svg" xmlns:xlink="http://www.w3.org/1999/xlink" x="0px" y="0px"
	 width="256px" height="256px" viewBox="0 0 256 256" enable-background="new 0 0 256 256" xml:space="preserve">
<g>
	<path fill="#FFFFFF" d="M52.655,229.188v-8.482c0-21.41,10.786-34.377,32.358-38.904c18.018-27.062,27.028-50.416,27.028-70.05
		v-5.213h-29.33v-5.451c0-4.686,2.1-9.212,6.303-13.574c4.199-4.362,10.137-7.958,17.814-10.787
		c-5.172-6.141-7.757-13.007-7.757-20.604c0-7.835,2.829-14.584,8.484-20.239c5.655-5.655,12.444-8.483,20.36-8.483
		c7.919,0,14.706,2.829,20.362,8.483c5.654,5.655,8.484,12.403,8.484,20.239c0,7.596-2.592,14.462-7.76,20.604
		c7.68,2.829,13.615,6.424,17.812,10.787c4.199,4.362,6.305,8.888,6.305,13.574v5.451h-29.33v5.213
		c0,19.634,9.01,42.985,27.025,70.05c21.574,4.527,32.357,17.494,32.357,38.904v8.482H52.655z"/>
	<path d="M127.915,27.4c7.919,0,14.706,2.829,20.362,8.483c5.654,5.655,8.484,12.403,8.484,20.239c0,7.596-2.592,14.462-7.76,20.604
		c7.68,2.829,13.615,6.424,17.812,10.787c4.199,4.362,6.305,8.888,6.305,13.574v5.451h-29.33v5.213
		c0,19.634,9.01,42.985,27.025,70.05c21.574,4.527,32.357,17.494,32.357,38.904v8.482H52.655v-8.482
		c0-21.41,10.786-34.377,32.358-38.904c18.018-27.062,27.028-50.416,27.028-70.05v-5.213h-29.33v-5.451
		c0-4.686,2.1-9.212,6.303-13.574c4.199-4.362,10.137-7.958,17.814-10.787c-5.172-6.141-7.757-13.007-7.757-20.604
		c0-7.835,2.829-14.584,8.484-20.239C113.21,30.228,119.999,27.4,127.915,27.4 M127.915,22.4c-9.255,0-17.295,3.347-23.896,9.947
		c-6.602,6.602-9.949,14.601-9.949,23.775c0,6.596,1.7,12.765,5.064,18.413c-5.598,2.663-10.198,5.849-13.723,9.511
		c-5.109,5.302-7.701,11.036-7.701,17.041v5.451v5h5h24.33v0.213c0,18.146-8.439,40.213-25.09,65.614
		c-10.877,2.618-19.298,7.443-25.05,14.359c-6.135,7.376-9.246,17.126-9.246,28.98v8.482v5h5h150.517h5v-5v-8.482
		c0-11.854-3.11-21.605-9.244-28.98c-5.752-6.916-14.173-11.741-25.051-14.359c-16.649-25.403-25.088-47.471-25.088-65.614v-0.213
		h24.33h5v-5v-5.451c0-5.999-2.592-11.732-7.703-17.042c-3.523-3.663-8.123-6.849-13.722-9.512
		c3.366-5.651,5.067-11.82,5.067-18.412c0-9.173-3.348-17.172-9.948-23.774C145.209,25.747,137.169,22.4,127.915,22.4L127.915,22.4z
		"/>
</g>
</svg>
