<?xml version="1.0" encoding="utf-8"?>
<!-- Generator: Adobe Illustrator 16.0.0, SVG Export Plug-In . SVG Version: 6.00 Build 0)  -->
<!DOCTYPE svg PUBLIC "-//W3C//DTD SVG 1.1//EN" "http://www.w3.org/Graphics/SVG/1.1/DTD/svg11.dtd">
<svg version="1.1" id="Layer_1" xmlns="http://www.w3.org/2000/svg" xmlns:xlink="http://www.w3.org/1999/xlink" x="0px" y="0px"
	 width="256px" height="256px" viewBox="0 0 256 256" enable-background="new 0 0 256 256" xml:space="preserve">
<g>
	<path fill="#FFFFFF" d="M231.693,230.003h-27.446c0-2.849-2.358-4.271-7.074-4.271c-1.062,0-5.132,0.443-12.207,1.334
		c-12.028,1.47-19.519,2.195-22.44,2.195c-9.271,0-17.02-1.986-23.24-5.979c-6.223-3.989-9.985-9.391-11.283-16.221
		c-1.302,6.83-5.062,12.229-11.283,16.221c-6.222,3.988-13.968,5.979-23.241,5.979c-2.926,0-10.412-0.728-22.445-2.195
		c-7.16-0.891-11.224-1.334-12.199-1.334c-4.72,0-7.079,1.424-7.079,4.271H24.307v-5.978c0-3.916,1.505-7.892,4.513-11.955
		c3.007-4.07,7.542-7.305,13.604-9.699c6.055-2.402,13.438-3.604,22.14-3.604c3.905,0,9.393,0.531,16.467,1.586
		c4.88,0.733,8.298,1.099,10.249,1.099c4.961,0,8.58-0.595,10.856-1.767c2.277-1.18,4.88-3.968,7.81-8.356
		c-10.901-1.787-18.14-4.554-21.718-8.3v-31.717c-11.465-8.047-17.198-18.295-17.198-30.739c0-6.348,1.583-12.103,4.757-17.264
		c3.17-5.162,7.034-9.7,11.587-13.601l34.403-29.159c-7.156-3.085-10.734-8.41-10.734-15.974c0-4.716,1.646-8.721,4.938-12.021
		c3.297-3.293,7.302-4.939,12.018-4.939c4.717,0,8.718,1.646,12.011,4.939c3.301,3.3,4.946,7.305,4.946,12.021
		c0,7.564-3.582,12.889-10.733,15.974c21.553,18.221,34.234,29.115,38.062,32.697c3.818,3.582,6.89,7.75,9.211,12.503
		c2.312,4.753,3.471,9.7,3.471,14.824c0,12.444-5.725,22.692-17.195,30.739v31.717c-3.656,3.746-10.938,6.513-21.84,8.3
		c3.01,4.392,5.648,7.179,7.934,8.356c2.271,1.172,5.896,1.767,10.857,1.767c1.867,0,5.279-0.363,10.247-1.099
		c7.075-1.055,12.562-1.586,16.466-1.586c13.096,0,23.076,2.608,29.951,7.809c6.875,5.199,10.311,11.021,10.311,17.449v5.978
		H231.693z M160.938,147.049c-13.821-3.664-24.807-5.496-32.938-5.496c-8.217,0-19.196,1.832-32.938,5.496l0.244,6.948
		c10.735-3.656,21.633-5.487,32.693-5.487c11.062,0,21.963,1.831,32.692,5.487L160.938,147.049z M101.284,163.021l-5.978-4.021
		v10.729L101.284,163.021z M160.693,183.029v-6.703c-7.401-2.686-18.295-4.034-32.693-4.034c-14.395,0-25.296,1.351-32.693,4.034
		v6.703c7.32-2.521,18.218-3.781,32.693-3.781C142.473,179.248,153.374,180.509,160.693,183.029z M146.418,114.833v-7.075h-14.88
		V92.882h-7.075v14.876h-15.006v7.075h15.006v15.01h7.075v-15.01H146.418z M138.008,160.102L128,153.516l-10.004,6.586L128,166.566
		L138.008,160.102z M128,54.082c2.604,0,4.839-0.935,6.708-2.803c1.876-1.869,2.812-4.108,2.812-6.704
		c0-2.61-0.936-4.82-2.812-6.652c-1.869-1.832-4.104-2.744-6.708-2.744c-2.603,0-4.839,0.912-6.711,2.744
		c-1.869,1.832-2.804,4.042-2.804,6.652c0,2.596,0.935,4.835,2.804,6.704C123.161,53.147,125.397,54.082,128,54.082z
		 M160.693,169.732v-10.729l-5.979,4.021L160.693,169.732z"/>
	<path d="M127.999,27.615c4.717,0,8.718,1.646,12.011,4.939c3.301,3.3,4.946,7.305,4.946,12.021c0,7.564-3.582,12.889-10.733,15.974
		c21.553,18.221,34.234,29.115,38.062,32.697c3.818,3.582,6.89,7.75,9.211,12.503c2.312,4.753,3.471,9.7,3.471,14.824
		c0,12.444-5.725,22.692-17.195,30.739v31.717c-3.656,3.746-10.938,6.513-21.84,8.3c3.01,4.392,5.648,7.179,7.934,8.356
		c2.271,1.172,5.896,1.767,10.857,1.767c1.867,0,5.279-0.363,10.247-1.099c7.075-1.055,12.562-1.586,16.466-1.586
		c13.096,0,23.076,2.608,29.951,7.809c6.875,5.199,10.311,11.021,10.311,17.449v5.978h-0.004h-27.446
		c0-2.849-2.358-4.271-7.074-4.271c-1.062,0-5.132,0.443-12.207,1.334c-12.028,1.47-19.519,2.195-22.44,2.195
		c-9.271,0-17.02-1.986-23.24-5.979c-6.223-3.989-9.985-9.391-11.283-16.221c-1.302,6.83-5.062,12.229-11.283,16.221
		c-6.222,3.988-13.968,5.979-23.241,5.979c-2.926,0-10.412-0.728-22.445-2.195c-7.16-0.891-11.224-1.334-12.199-1.334
		c-4.72,0-7.079,1.424-7.079,4.271H24.307v-5.978c0-3.916,1.505-7.892,4.513-11.955c3.007-4.07,7.542-7.305,13.604-9.699
		c6.055-2.402,13.438-3.604,22.14-3.604c3.905,0,9.393,0.531,16.467,1.586c4.88,0.733,8.298,1.099,10.249,1.099
		c4.961,0,8.58-0.595,10.856-1.767c2.277-1.18,4.88-3.968,7.81-8.356c-10.901-1.787-18.14-4.554-21.718-8.3v-31.717
		c-11.465-8.047-17.198-18.295-17.198-30.739c0-6.348,1.583-12.103,4.757-17.264c3.17-5.162,7.034-9.7,11.587-13.601l34.403-29.159
		c-7.156-3.085-10.734-8.41-10.734-15.974c0-4.716,1.646-8.721,4.938-12.021C119.278,29.261,123.283,27.615,127.999,27.615
		 M128,54.082c2.604,0,4.839-0.935,6.708-2.803c1.876-1.869,2.812-4.108,2.812-6.704c0-2.61-0.936-4.82-2.812-6.652
		c-1.869-1.832-4.104-2.744-6.708-2.744c-2.603,0-4.839,0.912-6.711,2.744c-1.869,1.832-2.804,4.042-2.804,6.652
		c0,2.596,0.935,4.835,2.804,6.704C123.161,53.147,125.397,54.082,128,54.082 M109.457,114.833h15.006v15.01h7.075v-15.01h14.88
		v-7.075h-14.88V92.882h-7.075v14.876h-15.006V114.833 M95.306,153.997c10.735-3.656,21.633-5.487,32.693-5.487
		c11.062,0,21.963,1.831,32.692,5.487l0.246-6.948c-13.821-3.664-24.807-5.496-32.938-5.496c-8.217,0-19.196,1.832-32.938,5.496
		L95.306,153.997 M128,166.566l10.008-6.465L128,153.516l-10.004,6.586L128,166.566 M95.306,169.73l5.978-6.709l-5.978-4.021V169.73
		 M160.693,169.732v-10.729l-5.979,4.021L160.693,169.732 M95.307,183.029c7.32-2.521,18.218-3.781,32.693-3.781
		c14.473,0,25.374,1.261,32.693,3.781v-6.703c-7.401-2.686-18.295-4.034-32.693-4.034c-14.395,0-25.296,1.351-32.693,4.034V183.029
		 M127.999,22.615c-6.067,0-11.3,2.154-15.552,6.401c-4.251,4.262-6.404,9.495-6.404,15.559c0,6.918,2.483,12.55,7.255,16.606
		L84.141,85.894c-4.945,4.237-9.183,9.21-12.615,14.799c-3.646,5.929-5.497,12.619-5.497,19.88c0,13.31,5.783,24.49,17.198,33.27
		v29.187v2.004l1.384,1.449c3.296,3.451,8.639,6.114,16.225,8.067c-0.458,0.381-0.79,0.587-1.001,0.696
		c-0.868,0.446-3.15,1.206-8.556,1.206c-1.17,0-3.769-0.181-9.506-1.043c-7.41-1.104-13.038-1.642-17.21-1.642
		c-9.298,0-17.368,1.331-23.984,3.956c-6.91,2.729-12.222,6.558-15.782,11.375c-3.643,4.922-5.491,9.945-5.491,14.927v5.978v5h5
		h27.448h5v-4.107c0.427-0.084,1.093-0.163,2.079-0.163c0.31,0.007,2.121,0.119,11.582,1.296
		c12.325,1.503,19.865,2.233,23.062,2.233c10.205,0,18.932-2.277,25.939-6.77c3.508-2.25,6.374-4.908,8.583-7.956
		c2.209,3.048,5.077,5.706,8.586,7.956c6.998,4.491,15.726,6.77,25.938,6.77c3.215,0,10.754-0.73,23.047-2.232
		c9.427-1.187,11.269-1.293,11.608-1.297c0.979,0,1.641,0.079,2.066,0.162v4.107l5,0.001h27.446h5l0.004-5v-5.978
		c0-8.055-4.137-15.268-12.295-21.438c-7.737-5.853-18.829-8.82-32.967-8.82c-4.17,0-9.798,0.537-17.203,1.641
		c-5.828,0.862-8.389,1.044-9.51,1.044c-5.412,0-7.688-0.758-8.564-1.21c-0.216-0.111-0.558-0.321-1.03-0.712
		c7.541-1.945,12.885-4.59,16.222-8.009l1.422-1.457v-2.035v-29.187c11.413-8.774,17.195-19.955,17.195-33.27
		c0-5.868-1.337-11.591-3.975-17.012c-2.58-5.283-6.04-9.979-10.286-13.962c-3.603-3.371-14.418-12.687-33.001-28.423
		c4.77-4.056,7.251-9.687,7.251-16.601c0-6.07-2.157-11.304-6.411-15.557C139.297,24.77,134.066,22.615,127.999,22.615
		L127.999,22.615z M128,49.082c-1.268,0-2.249-0.414-3.179-1.342c-0.923-0.923-1.336-1.9-1.336-3.165
		c0-1.264,0.39-2.186,1.304-3.082c0.928-0.908,1.919-1.314,3.211-1.314c1.291,0,2.28,0.405,3.208,1.314
		c0.921,0.899,1.312,1.819,1.312,3.082c0,1.263-0.413,2.238-1.34,3.161C130.246,48.669,129.268,49.082,128,49.082L128,49.082z
		 M127.148,160.062l0.853-0.561l0.853,0.561L128,160.613L127.148,160.062L127.148,160.062z"/>
</g>
</svg>
