<?xml version="1.0" encoding="utf-8"?>
<!-- Generator: Adobe Illustrator 16.0.0, SVG Export Plug-In . SVG Version: 6.00 Build 0)  -->
<!DOCTYPE svg PUBLIC "-//W3C//DTD SVG 1.1//EN" "http://www.w3.org/Graphics/SVG/1.1/DTD/svg11.dtd">
<svg version="1.1" id="Layer_1" xmlns="http://www.w3.org/2000/svg" xmlns:xlink="http://www.w3.org/1999/xlink" x="0px" y="0px"
	 width="256px" height="256px" viewBox="0 0 256 256" enable-background="new 0 0 256 256" xml:space="preserve">
<g>
	<path d="M152.896,88.588c8.853-9.339,20.779-13.994,35.776-13.994c11.638,0,21.173,3.389,28.591,10.168
		c7.42,6.779,11.129,15.39,11.129,25.834c0,20.263-11.849,36.86-35.537,49.777v47.014c0,6.387-7.062,11.754-21.172,16.088
		c-14.125,4.351-29.121,6.531-44.992,6.531c-15.95,0-30.969-2.182-45.042-6.531c-14.074-4.334-21.114-9.701-21.114-16.088v-47.014
		C36.841,147.456,25,130.859,25,110.596c0-10.444,3.709-19.055,11.128-25.834c7.419-6.779,16.946-10.168,28.598-10.168
		c14.91,0,26.838,4.655,35.77,13.994c4.465-7.898,10.328-13.281,17.586-16.161h-14.954v-44.86h47.138v44.86h-14.953
		C142.562,75.307,148.425,80.689,152.896,88.588z M121.078,139.791c-11.011-38.839-29.798-58.258-56.352-58.258
		c-9.818,0-17.753,2.647-23.812,7.957c-6.066,5.295-9.091,12.335-9.091,21.106c0,8.859,3.025,17.252,9.091,25.194
		c6.059,7.928,14.474,14.575,25.245,19.914C79.236,146.133,97.542,140.823,121.078,139.791z M111.979,134.408
		c-18.422,1.119-33.696,5.949-45.82,14.474c-8.139-4.059-14.743-9.586-19.805-16.567c-5.062-6.982-7.593-14.211-7.593-21.717
		c0-6.938,2.349-12.378,7.055-16.321c4.706-3.957,11.012-5.935,18.91-5.935c10.444,0,19.87,4.029,28.292,12.088
		C101.426,108.487,107.753,119.818,111.979,134.408z M76.683,173.654l-9.324-5.746v20.104L76.683,173.654z M186.041,201.045v-7.65
		c-16.277-8.933-36.061-13.397-59.348-13.397c-23.288,0-43.072,4.466-59.334,13.397v7.65c7.012-4.306,15.928-7.753,26.736-10.343
		c10.808-2.589,21.674-3.884,32.598-3.884c10.851,0,21.673,1.295,32.482,3.884C169.982,193.292,178.941,196.739,186.041,201.045z
		 M147.509,93.49c-1.905-4.626-4.858-8.554-8.845-11.783c-3.993-3.229-7.984-4.844-11.971-4.844c-3.986,0-7.972,1.615-11.957,4.844
		c-3.993,3.229-6.938,7.157-8.859,11.783c3.346,3.272,7.201,8.975,11.55,17.106c4.342,8.146,7.433,15.753,9.266,22.852
		c1.833-7.099,4.909-14.706,9.215-22.852C140.221,102.465,144.083,96.763,147.509,93.49z M143.326,65.736V61.91l-11.725-11.855
		l11.725-11.724v-3.942h-5.862l-10.771,10.764l-10.764-10.764h-5.862v3.942l11.724,11.724L110.066,61.91v3.826h5.862l10.764-10.764
		l10.771,10.764H143.326z M141.895,162.279l-15.202-9.571l-15.187,9.571l15.187,10.777L141.895,162.279z M138.664,92.777
		c-6.064,7.898-10.051,15.229-11.971,22.008c-1.913-6.779-5.906-14.11-11.957-22.008c0.792-2.313,2.429-4.408,4.902-6.284
		c2.473-1.876,4.83-2.808,7.055-2.808c2.241,0,4.589,0.931,7.062,2.808C136.229,88.37,137.863,90.464,138.664,92.777z
		 M187.234,155.704c10.764-5.339,19.156-11.986,25.187-19.914c6.015-7.942,9.033-16.335,9.033-25.194
		c0-8.844-3.019-15.914-9.033-21.179c-6.028-5.251-13.942-7.884-23.747-7.884c-26.562,0-45.348,19.419-56.352,58.258
		C155.771,140.823,174.068,146.133,187.234,155.704z M141.413,134.408c4.226-14.59,10.547-25.921,18.962-33.979
		c8.414-8.059,17.841-12.088,28.299-12.088c7.973,0,14.299,2.007,18.961,5.993s6.997,9.412,6.997,16.263
		c0,7.506-2.53,14.735-7.601,21.717c-5.062,6.981-11.666,12.51-19.797,16.567C175.109,140.357,159.836,135.527,141.413,134.408z
		 M186.041,188.012v-20.104l-9.338,5.746L186.041,188.012z"/>
	<path fill="#FFFFFF" d="M150.266,27.567v44.86h-14.953c7.25,2.88,13.112,8.262,17.584,16.161
		c8.853-9.339,20.779-13.994,35.776-13.994c11.638,0,21.173,3.389,28.591,10.168c7.42,6.779,11.129,15.39,11.129,25.834
		c0,20.263-11.849,36.86-35.537,49.777v47.014c0,6.387-7.062,11.754-21.172,16.088c-14.125,4.351-29.121,6.531-44.992,6.531
		c-15.95,0-30.969-2.182-45.042-6.531c-14.074-4.334-21.114-9.701-21.114-16.088v-47.014C36.841,147.456,25,130.859,25,110.596
		c0-10.444,3.709-19.055,11.128-25.834c7.419-6.779,16.946-10.168,28.598-10.168c14.91,0,26.838,4.655,35.77,13.994
		c4.465-7.898,10.328-13.281,17.586-16.161h-14.954v-44.86H150.266 M126.693,45.153l-10.764-10.764h-5.862v3.942l11.724,11.724
		L110.066,61.91v3.826h5.862l10.764-10.764l10.771,10.764h5.863V61.91l-11.725-11.855l11.725-11.724v-3.942h-5.862L126.693,45.153
		 M126.693,133.448c1.833-7.099,4.909-14.706,9.215-22.852c4.312-8.131,8.175-13.833,11.601-17.106
		c-1.905-4.626-4.858-8.554-8.845-11.783c-3.993-3.229-7.984-4.844-11.971-4.844c-3.986,0-7.972,1.615-11.957,4.844
		c-3.993,3.229-6.938,7.157-8.859,11.783c3.346,3.272,7.201,8.975,11.55,17.106C121.769,118.742,124.86,126.349,126.693,133.448
		 M187.234,155.704c10.764-5.339,19.156-11.986,25.187-19.914c6.015-7.942,9.033-16.335,9.033-25.194
		c0-8.844-3.019-15.914-9.033-21.179c-6.028-5.251-13.942-7.884-23.747-7.884c-26.562,0-45.348,19.419-56.352,58.258
		C155.771,140.823,174.068,146.133,187.234,155.704 M66.159,155.704c13.077-9.571,31.383-14.881,54.919-15.913
		c-11.011-38.839-29.798-58.258-56.352-58.258c-9.818,0-17.753,2.647-23.812,7.957c-6.066,5.295-9.091,12.335-9.091,21.106
		c0,8.859,3.025,17.252,9.091,25.194C46.973,143.718,55.388,150.365,66.159,155.704 M126.693,173.057l15.202-10.777l-15.202-9.571
		l-15.187,9.571L126.693,173.057 M186.041,188.012v-20.104l-9.338,5.746L186.041,188.012 M67.359,188.012l9.324-14.357l-9.324-5.746
		V188.012 M67.359,201.045c7.012-4.306,15.928-7.753,26.736-10.343c10.808-2.589,21.674-3.884,32.598-3.884
		c10.851,0,21.673,1.295,32.482,3.884c10.808,2.59,19.767,6.037,26.866,10.343v-7.65c-16.277-8.933-36.061-13.397-59.348-13.397
		c-23.288,0-43.072,4.466-59.334,13.397V201.045 M126.693,83.685c2.241,0,4.589,0.931,7.062,2.808
		c2.474,1.877,4.108,3.971,4.909,6.284c-6.064,7.898-10.051,15.229-11.971,22.008c-1.913-6.779-5.906-14.11-11.957-22.008
		c0.792-2.313,2.429-4.408,4.902-6.284C122.111,84.617,124.468,83.685,126.693,83.685 M188.674,88.341
		c7.973,0,14.299,2.007,18.961,5.993s6.997,9.412,6.997,16.263c0,7.506-2.53,14.735-7.601,21.717
		c-5.062,6.981-11.666,12.51-19.797,16.567c-12.125-8.524-27.398-13.354-45.821-14.474c4.226-14.59,10.547-25.921,18.962-33.979
		C168.789,92.37,178.216,88.341,188.674,88.341 M64.726,88.341c10.444,0,19.87,4.029,28.292,12.088
		c8.408,8.058,14.735,19.389,18.961,33.979c-18.422,1.119-33.696,5.949-45.82,14.474c-8.139-4.059-14.743-9.586-19.805-16.567
		c-5.062-6.982-7.593-14.211-7.593-21.717c0-6.938,2.349-12.378,7.055-16.321C50.522,90.319,56.828,88.341,64.726,88.341
		 M150.266,22.567h-47.138l-5,5v44.86l4.617,4.617c-1.125,1.2-2.198,2.486-3.217,3.859c-9.252-7.509-20.929-11.309-34.801-11.309
		c-12.88,0-23.637,3.861-31.971,11.478C24.292,88.805,20,98.738,20,110.596c0,21.373,11.951,39.091,35.536,52.705v44.086
		c0,13.278,18.547,18.989,24.642,20.866c14.496,4.48,30.147,6.753,46.514,6.753c16.283,0,31.916-2.271,46.463-6.753
		c6.106-1.875,24.7-7.587,24.7-20.866v-44.086c23.585-13.617,35.537-31.337,35.537-52.705c0-11.858-4.292-21.792-12.757-29.525
		c-8.332-7.615-19.087-11.477-31.963-11.477c-13.935,0-25.618,3.796-34.821,11.296c-1.016-1.367-2.085-2.649-3.205-3.843l4.619-4.62
		v-44.86L150.266,22.567L150.266,22.567z M125.34,51.437l-0.008-2.748l2.728,0l-0.008,2.747L125.34,51.437L125.34,51.437z
		 M126.684,118.276c-0.304-0.707-0.619-1.417-0.942-2.131l1.879,0.001C127.299,116.86,126.987,117.57,126.684,118.276
		L126.684,118.276z M120.493,162.525l6.202-3.908l6.207,3.908l-6.207,4.401L120.493,162.525L120.493,162.525z"/>
</g>
</svg>
