<?xml version="1.0" encoding="utf-8"?>
<!-- Generator: Adobe Illustrator 16.0.0, SVG Export Plug-In . SVG Version: 6.00 Build 0)  -->
<!DOCTYPE svg PUBLIC "-//W3C//DTD SVG 1.1//EN" "http://www.w3.org/Graphics/SVG/1.1/DTD/svg11.dtd">
<svg version="1.1" id="Layer_1" xmlns="http://www.w3.org/2000/svg" xmlns:xlink="http://www.w3.org/1999/xlink" x="0px" y="0px"
	 width="256px" height="256px" viewBox="0 0 256 256" enable-background="new 0 0 256 256" xml:space="preserve">
<g>
	<path d="M172.535,121.196l20.794-22.319c13.786-14.705,20.68-22.022,20.68-21.952c-3.022-2.557-4.526-5.806-4.526-9.761
		c0-3.489,1.193-6.427,3.604-8.829c2.396-2.401,5.305-3.602,8.708-3.602c3.489,0,6.429,1.201,8.829,3.602
		c2.4,2.402,3.604,5.34,3.604,8.829c0,3.404-1.201,6.314-3.604,8.716c-2.4,2.402-5.34,3.602-8.829,3.602h-1.392l-30.44,72.607
		v55.656c0,6.2-6.856,11.414-20.562,15.623c-13.717,4.224-28.279,6.343-43.69,6.343c-15.489,0-30.07-2.119-43.741-6.343
		c-13.67-4.209-20.507-9.423-20.507-15.623v-55.656L31.019,79.482h-1.392c-3.485,0-6.431-1.201-8.832-3.602
		c-2.401-2.401-3.602-5.312-3.602-8.716c0-3.489,1.201-6.427,3.602-8.829c2.401-2.401,5.347-3.602,8.832-3.602
		c3.408,0,6.311,1.201,8.712,3.602c2.401,2.402,3.602,5.34,3.602,8.829c0,4.026-1.511,7.205-4.531,9.521l41.36,44.511l-3.485-60.417
		c-3.33,0-6.198-1.229-8.596-3.659c-2.401-2.444-3.602-5.368-3.602-8.772c0-3.489,1.201-6.413,3.602-8.772
		c2.398-2.373,5.343-3.545,8.829-3.545c3.408,0,6.311,1.201,8.716,3.602c2.398,2.401,3.599,5.297,3.599,8.716
		c0,4.407-1.896,7.896-5.693,10.453l26.956,54.483l13.01-60.643c-5.883-1.864-8.828-5.806-8.828-11.852
		c0-3.489,1.2-6.427,3.602-8.829c2.402-2.402,5.347-3.602,8.829-3.602c3.411,0,6.314,1.201,8.716,3.602
		c2.402,2.401,3.603,5.34,3.603,8.829c0,6.046-2.901,9.987-8.715,11.852l13.018,60.643l26.952-54.483
		c-3.794-2.331-5.692-5.806-5.692-10.453c0-3.418,1.2-6.314,3.604-8.716c2.4-2.402,5.305-3.602,8.716-3.602
		c3.403,0,6.336,1.201,8.772,3.602c2.436,2.401,3.656,5.297,3.656,8.716c0,3.404-1.199,6.328-3.604,8.772
		c-2.399,2.43-5.27,3.659-8.596,3.659L172.535,121.196z M29.627,72.857c1.469,0,2.787-0.565,3.948-1.681
		c1.162-1.13,1.745-2.458,1.745-4.012c0-1.554-0.583-2.881-1.745-4.012c-1.162-1.116-2.479-1.681-3.948-1.681
		c-1.55,0-2.906,0.565-4.068,1.681c-1.162,1.13-1.741,2.458-1.741,4.012c0,1.554,0.579,2.882,1.741,4.012
		C26.721,72.292,28.077,72.857,29.627,72.857z M183.342,165.919v-9.762c-13.477-9.365-32.688-14.056-57.634-14.056
		c-24.939,0-44.147,4.688-57.623,14.056v9.762c3.948-5.185,11.248-9.353,21.898-12.487c10.651-3.137,22.56-4.703,35.725-4.703
		s25.08,1.566,35.731,4.703C172.083,156.566,179.387,160.734,183.342,165.919z M77.146,174.986l-9.062-5.579v19.522L77.146,174.986z
		 M183.342,201.586v-7.43c-15.807-8.674-35.019-13.01-57.634-13.01s-41.823,4.336-57.623,13.01v7.43
		c6.812-4.182,15.468-7.527,25.967-10.043c10.492-2.516,21.048-3.771,31.656-3.771c10.538,0,21.048,1.258,31.543,3.771
		C167.747,194.059,176.448,197.404,183.342,201.586z M75.519,54.042c1.55,0,2.885-0.565,4.008-1.695
		c1.123-1.116,1.685-2.458,1.685-3.998c0-1.554-0.562-2.896-1.685-4.012c-1.123-1.13-2.458-1.681-4.008-1.681
		c-1.55,0-2.885,0.551-4.008,1.681c-1.123,1.116-1.685,2.458-1.685,4.012c0,1.54,0.562,2.882,1.685,3.998
		C72.633,53.477,73.968,54.042,75.519,54.042z M140.471,163.939l-14.763-9.295l-14.751,9.295l14.751,10.469L140.471,163.939z
		 M125.708,46.484c1.554,0,2.89-0.579,4.013-1.737c1.122-1.172,1.68-2.486,1.68-3.956c0-1.554-0.558-2.91-1.68-4.068
		c-1.123-1.159-2.458-1.738-4.013-1.738c-1.547,0-2.882,0.579-4.005,1.738c-1.123,1.158-1.688,2.514-1.688,4.068
		c0,1.469,0.564,2.783,1.688,3.956C122.826,45.905,124.161,46.484,125.708,46.484z M175.904,54.042c1.547,0,2.882-0.565,4.005-1.695
		c1.123-1.116,1.688-2.458,1.688-3.998c0-1.554-0.564-2.896-1.688-4.012c-1.123-1.13-2.458-1.681-4.005-1.681
		s-2.889,0.551-4.006,1.681c-1.129,1.116-1.693,2.458-1.693,4.012c0,1.54,0.564,2.882,1.693,3.998
		C173.016,53.477,174.357,54.042,175.904,54.042z M183.342,188.93v-19.521l-9.068,5.58L183.342,188.93z M221.792,72.857
		c1.556,0,2.89-0.565,4.013-1.681c1.122-1.13,1.682-2.458,1.682-4.012c0-1.554-0.559-2.881-1.682-4.012
		c-1.123-1.116-2.457-1.681-4.013-1.681c-1.547,0-2.881,0.565-4.004,1.681c-1.123,1.13-1.688,2.458-1.688,4.012
		c0,1.554,0.565,2.882,1.688,4.012C218.911,72.292,220.245,72.857,221.792,72.857z"/>
	<path fill="#FFFFFF" d="M125.709,28.359c3.411,0,6.314,1.201,8.716,3.602c2.402,2.401,3.603,5.34,3.603,8.829
		c0,6.046-2.901,9.987-8.715,11.852l13.018,60.643l26.952-54.483c-3.794-2.331-5.692-5.806-5.692-10.453
		c0-3.418,1.2-6.314,3.604-8.716c2.4-2.402,5.305-3.602,8.716-3.602c3.403,0,6.336,1.201,8.772,3.602
		c2.436,2.401,3.656,5.297,3.656,8.716c0,3.404-1.199,6.328-3.604,8.772c-2.399,2.43-5.27,3.659-8.596,3.659l-3.604,60.416
		l20.794-22.319c13.713-14.627,20.606-21.944,20.679-21.953c0.001,0,0.001,0,0.001,0c0,0,0,0,0,0c-0.001,0-0.001,0-0.001,0
		c-3.021-2.557-4.525-5.805-4.525-9.76c0-3.489,1.193-6.427,3.604-8.829c2.396-2.401,5.305-3.602,8.708-3.602
		c3.489,0,6.429,1.201,8.829,3.602c2.4,2.402,3.604,5.34,3.604,8.829c0,3.404-1.201,6.314-3.604,8.716
		c-2.4,2.402-5.34,3.602-8.829,3.602h-1.392l-30.44,72.607v55.656c0,6.2-6.856,11.414-20.562,15.623
		c-13.717,4.224-28.279,6.343-43.69,6.343c-15.489,0-30.07-2.119-43.741-6.343c-13.67-4.209-20.507-9.423-20.507-15.623v-55.656
		L31.019,79.482h-1.392c-3.485,0-6.431-1.201-8.832-3.602c-2.401-2.401-3.602-5.312-3.602-8.716c0-3.489,1.201-6.427,3.602-8.829
		c2.401-2.401,5.347-3.602,8.832-3.602c3.408,0,6.311,1.201,8.712,3.602c2.401,2.402,3.602,5.34,3.602,8.829
		c0,4.026-1.511,7.205-4.531,9.521l41.36,44.511l-3.485-60.417c-3.33,0-6.198-1.229-8.596-3.659
		c-2.401-2.444-3.602-5.368-3.602-8.772c0-3.489,1.201-6.413,3.602-8.772c2.398-2.373,5.343-3.545,8.829-3.545
		c3.408,0,6.311,1.201,8.716,3.602c2.398,2.401,3.599,5.297,3.599,8.716c0,4.407-1.896,7.896-5.693,10.453l26.956,54.483
		l13.01-60.643c-5.883-1.864-8.828-5.806-8.828-11.852c0-3.489,1.2-6.427,3.602-8.829C119.282,29.559,122.227,28.359,125.709,28.359
		 M125.708,46.484c1.554,0,2.89-0.579,4.013-1.737c1.122-1.172,1.68-2.486,1.68-3.956c0-1.554-0.558-2.91-1.68-4.068
		c-1.123-1.159-2.458-1.738-4.013-1.738c-1.547,0-2.882,0.579-4.005,1.738c-1.123,1.158-1.688,2.514-1.688,4.068
		c0,1.469,0.564,2.783,1.688,3.956C122.826,45.905,124.161,46.484,125.708,46.484 M175.904,54.042c1.547,0,2.882-0.565,4.005-1.695
		c1.123-1.116,1.688-2.458,1.688-3.998c0-1.554-0.564-2.896-1.688-4.012c-1.123-1.13-2.458-1.681-4.005-1.681
		s-2.889,0.551-4.006,1.681c-1.129,1.116-1.693,2.458-1.693,4.012c0,1.54,0.564,2.882,1.693,3.998
		C173.016,53.477,174.357,54.042,175.904,54.042 M75.519,54.042c1.55,0,2.885-0.565,4.008-1.695
		c1.123-1.116,1.685-2.458,1.685-3.998c0-1.554-0.562-2.896-1.685-4.012c-1.123-1.13-2.458-1.681-4.008-1.681
		c-1.55,0-2.885,0.551-4.008,1.681c-1.123,1.116-1.685,2.458-1.685,4.012c0,1.54,0.562,2.882,1.685,3.998
		C72.633,53.477,73.968,54.042,75.519,54.042 M221.792,72.857c1.556,0,2.89-0.565,4.013-1.681c1.122-1.13,1.682-2.458,1.682-4.012
		c0-1.554-0.559-2.881-1.682-4.012c-1.123-1.116-2.457-1.681-4.013-1.681c-1.547,0-2.881,0.565-4.004,1.681
		c-1.123,1.13-1.688,2.458-1.688,4.012c0,1.554,0.565,2.882,1.688,4.012C218.911,72.292,220.245,72.857,221.792,72.857
		 M29.627,72.857c1.469,0,2.787-0.565,3.948-1.681c1.162-1.13,1.745-2.458,1.745-4.012c0-1.554-0.583-2.881-1.745-4.012
		c-1.162-1.116-2.479-1.681-3.948-1.681c-1.55,0-2.906,0.565-4.068,1.681c-1.162,1.13-1.741,2.458-1.741,4.012
		c0,1.554,0.579,2.882,1.741,4.012C26.721,72.292,28.077,72.857,29.627,72.857 M68.085,165.919
		c3.948-5.185,11.248-9.353,21.898-12.487c10.651-3.137,22.56-4.703,35.725-4.703s25.08,1.566,35.731,4.703
		c10.644,3.135,17.947,7.303,21.902,12.487v-9.762c-13.477-9.365-32.688-14.056-57.634-14.056c-24.939,0-44.147,4.688-57.623,14.056
		V165.919 M125.708,174.408l14.763-10.469l-14.763-9.295l-14.751,9.295L125.708,174.408 M68.084,188.93l9.062-13.943l-9.062-5.579
		V188.93 M183.342,188.93v-19.521l-9.068,5.58L183.342,188.93 M68.085,201.586c6.812-4.182,15.468-7.527,25.967-10.043
		c10.492-2.516,21.048-3.771,31.656-3.771c10.538,0,21.048,1.258,31.543,3.771c10.496,2.516,19.197,5.861,26.091,10.043v-7.43
		c-15.807-8.674-35.019-13.01-57.634-13.01s-41.823,4.336-57.623,13.01V201.586 M125.709,23.359c-4.842,0-9.002,1.705-12.364,5.066
		s-5.067,7.522-5.067,12.365c0,6.603,2.836,11.715,8.088,14.771l-9.15,42.65L88.341,60.06c2.953-3.174,4.492-7.154,4.492-11.711
		c0-4.765-1.703-8.886-5.061-12.25c-3.371-3.365-7.492-5.068-12.254-5.068c-4.846,0-9,1.679-12.346,4.991
		c-3.37,3.311-5.085,7.462-5.085,12.326c0,4.744,1.694,8.874,5.035,12.276c2.146,2.174,4.654,3.687,7.405,4.487l2.452,42.506
		L44.215,76.663c1.795-2.701,2.726-5.912,2.726-9.499c0-4.842-1.705-9.002-5.066-12.364c-3.362-3.362-7.483-5.067-12.248-5.067
		c-4.845,0-9.006,1.705-12.368,5.066c-3.362,3.364-5.066,7.523-5.066,12.365c0,4.7,1.752,8.937,5.066,12.251
		c2.896,2.896,6.385,4.562,10.394,4.968l28.809,68.711v54.65c0,13.001,18.091,18.571,24.036,20.401
		c14.097,4.355,29.311,6.564,45.212,6.564c15.821,0,31.017-2.208,45.162-6.564c5.955-1.829,24.09-7.398,24.09-20.401v-54.65
		l28.807-68.711c4.009-0.406,7.497-2.073,10.392-4.97c3.313-3.313,5.066-7.55,5.066-12.25c0-4.84-1.705-9-5.066-12.364
		c-3.362-3.363-7.522-5.067-12.366-5.067c-4.701,0-8.937,1.753-12.247,5.07c-3.357,3.346-5.064,7.508-5.064,12.361
		c0,3.553,0.943,6.8,2.762,9.6c-0.61,0.646-1.311,1.389-2.1,2.227c-3.448,3.661-8.603,9.149-15.463,16.467l-11.327,12.158
		l2.534-42.5c2.752-0.799,5.26-2.31,7.403-4.48c3.351-3.406,5.046-7.537,5.046-12.285c0-4.78-1.731-8.91-5.146-12.277
		c-3.348-3.298-7.595-5.041-12.283-5.041c-4.77,0-8.893,1.705-12.252,5.067c-3.362,3.36-5.067,7.483-5.067,12.251
		c0,4.712,1.523,8.719,4.447,11.8l-18.829,38.063l-9.16-42.673c5.182-3.059,7.979-8.163,7.979-14.749
		c0-4.844-1.705-9.005-5.068-12.366C134.598,25.063,130.476,23.359,125.709,23.359L125.709,23.359z M125.708,41.484
		c-0.145,0-0.204,0-0.416-0.218c-0.277-0.289-0.277-0.41-0.277-0.475c0-0.168,0-0.301,0.277-0.586c0.213-0.22,0.272-0.22,0.416-0.22
		c0.153,0,0.211,0,0.422,0.217c0.258,0.267,0.271,0.391,0.271,0.589c0,0.077,0,0.194-0.291,0.498
		C125.92,41.484,125.862,41.484,125.708,41.484L125.708,41.484z M175.904,49.042c-0.166,0-0.242,0-0.45-0.21l-0.021-0.02l-0.02-0.02
		c-0.209-0.207-0.209-0.28-0.209-0.442c0-0.177,0-0.25,0.209-0.457l0.02-0.02l0.021-0.02c0.177-0.179,0.239-0.196,0.45-0.196
		c0.197,0,0.263,0.009,0.459,0.206c0.224,0.223,0.234,0.298,0.234,0.487c0,0.16,0,0.24-0.213,0.452
		C176.145,49.042,176.069,49.042,175.904,49.042L175.904,49.042z M75.519,49.042c-0.172,0-0.244,0-0.459-0.217
		c-0.233-0.232-0.233-0.309-0.233-0.476c0-0.191,0.01-0.268,0.21-0.466c0.217-0.219,0.279-0.227,0.483-0.227
		s0.266,0.008,0.461,0.206c0.221,0.22,0.231,0.296,0.231,0.487c0,0.167,0,0.243-0.21,0.452
		C75.762,49.042,75.691,49.042,75.519,49.042L75.519,49.042z M221.792,67.857c-0.167,0-0.25,0-0.479-0.228
		c-0.213-0.214-0.213-0.293-0.213-0.465s0-0.251,0.235-0.488c0.206-0.205,0.29-0.205,0.457-0.205c0.173,0,0.26,0,0.488,0.228
		c0.206,0.208,0.206,0.283,0.206,0.465s0,0.257-0.229,0.488C222.051,67.857,221.97,67.857,221.792,67.857L221.792,67.857z
		 M29.627,67.857c-0.164,0-0.305,0-0.604-0.287c-0.205-0.199-0.205-0.255-0.205-0.406s0-0.207,0.228-0.428
		c0.276-0.265,0.417-0.265,0.582-0.265c0.069,0,0.186,0,0.485,0.288c0.208,0.202,0.208,0.262,0.208,0.405s0,0.203-0.231,0.428
		C29.813,67.857,29.696,67.857,29.627,67.857L29.627,67.857z M119.944,164.187l5.765-3.633l5.77,3.633l-5.77,4.091L119.944,164.187
		L119.944,164.187z"/>
</g>
</svg>
