<?xml version="1.0" encoding="utf-8"?>
<!-- Generator: Adobe Illustrator 16.0.0, SVG Export Plug-In . SVG Version: 6.00 Build 0)  -->
<!DOCTYPE svg PUBLIC "-//W3C//DTD SVG 1.1//EN" "http://www.w3.org/Graphics/SVG/1.1/DTD/svg11.dtd">
<svg version="1.1" id="Layer_1" xmlns="http://www.w3.org/2000/svg" xmlns:xlink="http://www.w3.org/1999/xlink" x="0px" y="0px"
	 width="256px" height="256px" viewBox="0 0 256 256" enable-background="new 0 0 256 256" xml:space="preserve">
<g>
	<path d="M214.703,229.997H44.986v-31.076l17.105-18.672v-12.162l20.477-22.883V90.88L59.561,75.334V28.003h32.401v21.923h22.886
		V28.003h30.113v21.923h22.887V28.003h32.401v47.332L177.242,90.88v54.324l20.477,22.883v12.162l16.984,18.672V229.997z
		 M206.634,199.771l-15.778-17.105H68.959L53.18,199.771H206.634z M193.264,70.399V56.912H66.55V70.4L193.264,70.399L193.264,70.399
		z M188.082,167.609l-13.008-14.578H84.735l-13.008,14.578H188.082z"/>
	<path fill="#FFFFFF" d="M200.249,28.003v47.332L177.242,90.88v54.324l20.477,22.883v12.162l16.984,18.672v31.076H44.986v-31.076
		l17.105-18.672v-12.162l20.477-22.883V90.88L59.561,75.334V28.003h32.401v21.923h22.886V28.003h30.113v21.923h22.887V28.003
		H200.249 M66.55,70.4l126.714-0.001V56.912H66.55V70.4 M71.727,167.609h116.355l-13.008-14.578H84.735L71.727,167.609
		 M53.18,199.771h153.454l-15.778-17.105H68.959L53.18,199.771 M205.249,23.003h-5h-32.401h-5v5v16.923h-12.887V28.003v-5h-5
		h-30.113h-5v5v16.923H96.962V28.003v-5h-5H59.561h-5v5v47.331v2.656l2.201,1.487l20.806,14.059v49.758l-19.203,21.459l-1.274,1.424
		v1.91v10.218l-15.792,17.238l-1.313,1.434v1.944v31.076v5h5h169.717h5v-5v-31.076v-1.934l-1.301-1.431l-15.684-17.241v-10.229
		v-1.91l-1.274-1.424l-19.202-21.459V93.536l20.806-14.058l2.201-1.487v-2.656V28.003V23.003L205.249,23.003z M71.55,61.912h116.714
		v3.487L71.55,65.4V61.912L71.55,61.912z M86.975,158.031h85.86l4.085,4.578H82.89L86.975,158.031L86.975,158.031z M71.149,187.666
		h117.516l6.555,7.105H64.595L71.149,187.666L71.149,187.666z"/>
</g>
</svg>
